<?xml version='1.0' encoding='utf-8'?>
<!DOCTYPE svg>
<!-- Generator: Adobe Illustrator 16.0.0, SVG Export Plug-In . SVG Version: 6.00 Build 0)  -->
<svg xmlns="http://www.w3.org/2000/svg" enable-background="new 0 0 51.1 44.352" x="0px" xmlns:xml="http://www.w3.org/XML/1998/namespace" y="0px" version="1.1" width="0.709722in" gorn="0" id="Layer_1"  viewBox="0 0 51.1 44.352" xml:space="preserve" height="0.616in">
    <desc>
        <referenceFile>sparkfun-rf_rf-link_tx_schematic.svg</referenceFile>
    </desc>
    <g gorn="0.0" id="schematic" >
        <rect x="14.75" y="0.576" width="21.6"  fill="#FFFFFF" height="43.199"/>
        <rect x="14.75" y="0.576" width="21.6"  fill="#FFFFFF" height="43.199"/>
        <rect x="14.75" y="0.576" width="21.6"  fill="#FFFFFF" height="43.199"/>
        <g transform="matrix(1 0 0 1 18.5647 14.0002)" >
            <text gorn="0.0.3.0" id="label_3_"  font-size="4.25" font-family="'DroidSans'">RF LINK</text>
        </g>
        <g transform="matrix(1 0 0 1 23.6921 18.5334)" >
            <text gorn="0.0.4.0" id="label_4_"  font-size="4.25" font-family="'DroidSans'">TX</text>
        </g>
        <line x1="36.35" stroke-width="0.9" x2="14.75" stroke="#000000"  fill="none" stroke-linecap="round" y1="43.776" y2="43.776"/>
        <line x1="14.75" stroke-width="0.9" x2="14.75" stroke="#000000"  fill="none" stroke-linecap="round" y1="0.576" y2="43.776"/>
        <line x1="36.35" stroke-width="0.9" x2="36.35" stroke="#000000"  fill="none" stroke-linecap="round" y1="43.776" y2="0.576"/>
        <line x1="14.75" stroke-width="0.9" x2="36.35" stroke="#000000"  fill="none" stroke-linecap="round" y1="0.576" y2="0.576"/>
        <line x1="0.35" stroke-width="0.75" x2="14.75" gorn="0.0.9" id="connector2pin" stroke="#787878"  fill="none" stroke-linecap="round" y1="36.576" y2="36.576"/>
        <rect x="0.35" y="36.576" width="0" gorn="0.0.10" id="connector2terminal"  fill="none" height="0"/>
        <g transform="matrix(1 0 0 1 6.8616 35.5256)" >
            <text  fill="#8C8C8C" font-size="2.5" font-family="'DroidSans'">3</text>
        </g>
        <g transform="matrix(1 0 0 1 16.8499 37.2756)" >
            <text  fill="#787878" font-size="3.5" font-family="'DroidSans'">GND</text>
        </g>
        <line x1="0.35" stroke-width="0.75" x2="14.75" gorn="0.0.13" id="connector1pin" stroke="#787878"  fill="none" stroke-linecap="round" y1="22.176" y2="22.176"/>
        <rect x="0.35" y="22.176" width="0" gorn="0.0.14" id="connector1terminal"  fill="none" height="0"/>
        <g transform="matrix(1 0 0 1 6.8616 21.1252)" >
            <text  fill="#8C8C8C" font-size="2.5" font-family="'DroidSans'">2</text>
        </g>
        <g transform="matrix(1 0 0 1 16.8499 22.8752)" >
            <text  fill="#787878" font-size="3.5" font-family="'DroidSans'">DATA</text>
        </g>
        <line x1="50.75" stroke-width="0.75" x2="36.35" gorn="0.0.17" id="connector0pin" stroke="#787878"  fill="none" stroke-linecap="round" y1="7.776" y2="7.776"/>
        <rect x="50.75" y="7.776" width="0" gorn="0.0.18" id="connector0terminal"  fill="none" height="0.001"/>
        <g transform="matrix(1 0 0 1 42.8616 6.7249)" >
            <text  fill="#8C8C8C" font-size="2.5" font-family="'DroidSans'">1</text>
        </g>
        <g transform="matrix(1 0 0 1 27.7542 8.4749)" >
            <text  fill="#787878" font-size="3.5" font-family="'DroidSans'">ANT</text>
        </g>
        <line x1="0.35" stroke-width="0.75" x2="14.75" gorn="0.0.21" id="connector3pin" stroke="#787878"  fill="none" stroke-linecap="round" y1="7.776" y2="7.776"/>
        <rect x="0.35" y="7.776" width="0" gorn="0.0.22" id="connector3terminal"  fill="none" height="0.001"/>
        <g transform="matrix(1 0 0 1 6.8616 6.7249)" >
            <text  fill="#8C8C8C" font-size="2.5" font-family="'DroidSans'">4</text>
        </g>
        <g transform="matrix(1 0 0 1 16.8499 8.4749)" >
            <text  fill="#787878" font-size="3.5" font-family="'DroidSans'">+5V</text>
        </g>
    </g>
</svg>
