<?xml version='1.0' encoding='UTF-8' standalone='no'?>
<!-- Created with Fritzing (http://www.fritzing.org/) -->
<svg xmlns="http://www.w3.org/2000/svg" x="0in" y="0in" version="1.2" width="1.616in" baseProfile="tiny"  viewBox="0 0 41.0464 8.0264" height="0.316in">
    <desc >
        <referenceFile >sparkfun-rf_rf-link_rx_pcb.svg</referenceFile>
    </desc>
    <g gorn="0.1" id="copper1" >
        <circle connectorname="GND@1" stroke-width="0.4318" gorn="0.1.0" id="connector0pad" stroke="#F7BD13"  fill="none" r="0.7239" cx="1.4732" cy="3.8862"/>
        <path d="m0.5334,2.9464 1.8796,0 0,1.8796 -1.8796,0 0,-1.8796zM0.9652,3.8862a0.508,0.508 0 1 0 1.016,0 0.508,0.508 0 1 0 -1.016,0z&#xd;&#xa;" stroke-width="0" stroke="none"  fill="#F7BD13"/>
        <circle connectorname="DATA@1" stroke-width="0.4318" gorn="0.1.2" id="connector1pad" stroke="#F7BD13"  fill="none" r="0.7239" cx="4.0132" cy="4.1402"/>
        <circle connectorname="DATA@2" stroke-width="0.4318" gorn="0.1.3" id="connector2pad" stroke="#F7BD13"  fill="none" r="0.7239" cx="6.5532" cy="3.8862"/>
        <circle connectorname="+5V@1" stroke-width="0.4318" gorn="0.1.4" id="connector6pad" stroke="#F7BD13"  fill="none" r="0.7239" cx="9.0932" cy="4.1402"/>
        <circle connectorname="+5V@2" stroke-width="0.4318" gorn="0.1.5" id="connector5pad" stroke="#F7BD13"  fill="none" r="0.7239" cx="31.9532" cy="3.8862"/>
        <circle connectorname="GND@2" stroke-width="0.4318" gorn="0.1.6" id="connector3pad" stroke="#F7BD13"  fill="none" r="0.7239" cx="34.4932" cy="4.1402"/>
        <circle connectorname="GND@3" stroke-width="0.4318" gorn="0.1.7" id="connector4pad" stroke="#F7BD13"  fill="none" r="0.7239" cx="37.0332" cy="3.8862"/>
        <circle connectorname="ANT" stroke-width="0.4318" gorn="0.1.8" id="connector7pad" stroke="#F7BD13"  fill="none" r="0.7239" cx="39.5732" cy="4.1402"/>
        <g gorn="0.1.9" id="copper0" >
            <circle connectorname="GND@1" stroke-width="0.4318" gorn="0.1.9.0" id="connector0pad" stroke="#F7BD13"  fill="none" r="0.7239" cx="1.4732" cy="3.8862"/>
            <path d="m0.5334,2.9464 1.8796,0 0,1.8796 -1.8796,0 0,-1.8796zM0.9652,3.8862a0.508,0.508 0 1 0 1.016,0 0.508,0.508 0 1 0 -1.016,0z&#xd;&#xa;" stroke-width="0" stroke="none"  fill="#F7BD13"/>
            <circle connectorname="DATA@1" stroke-width="0.4318" gorn="0.1.9.2" id="connector1pad" stroke="#F7BD13"  fill="none" r="0.7239" cx="4.0132" cy="4.1402"/>
            <circle connectorname="DATA@2" stroke-width="0.4318" gorn="0.1.9.3" id="connector2pad" stroke="#F7BD13"  fill="none" r="0.7239" cx="6.5532" cy="3.8862"/>
            <circle connectorname="+5V@1" stroke-width="0.4318" gorn="0.1.9.4" id="connector6pad" stroke="#F7BD13"  fill="none" r="0.7239" cx="9.0932" cy="4.1402"/>
            <circle connectorname="+5V@2" stroke-width="0.4318" gorn="0.1.9.5" id="connector5pad" stroke="#F7BD13"  fill="none" r="0.7239" cx="31.9532" cy="3.8862"/>
            <circle connectorname="GND@2" stroke-width="0.4318" gorn="0.1.9.6" id="connector3pad" stroke="#F7BD13"  fill="none" r="0.7239" cx="34.4932" cy="4.1402"/>
            <circle connectorname="GND@3" stroke-width="0.4318" gorn="0.1.9.7" id="connector4pad" stroke="#F7BD13"  fill="none" r="0.7239" cx="37.0332" cy="3.8862"/>
            <circle connectorname="ANT" stroke-width="0.4318" gorn="0.1.9.8" id="connector7pad" stroke="#F7BD13"  fill="none" r="0.7239" cx="39.5732" cy="4.1402"/>
        </g>
    </g>
    <g gorn="0.2" id="silkscreen" >
        <line x1="0.2032" x2="0.2032" stroke-width="0.4064" class="other" stroke="#f0f0f0"  stroke-linecap="round" y1="0.2032" y2="7.8232"/>
        <line x1="0.2032" x2="40.8432" stroke-width="0.4064" class="other" stroke="#f0f0f0"  stroke-linecap="round" y1="7.8232" y2="7.8232"/>
        <line x1="40.8432" x2="40.8432" stroke-width="0.4064" class="other" stroke="#f0f0f0"  stroke-linecap="round" y1="7.8232" y2="0.2032"/>
        <line x1="40.8432" x2="0.2032" stroke-width="0.4064" class="other" stroke="#f0f0f0"  stroke-linecap="round" y1="0.2032" y2="0.2032"/>
    </g>
</svg>
