<?xml version='1.0' encoding='UTF-8' standalone='no'?>
<!-- Created with Fritzing (http://www.fritzing.org/) -->
<svg xmlns="http://www.w3.org/2000/svg" x="0in" y="0in" version="1.2" width="0.516in" baseProfile="tiny"  viewBox="0 0 13.1064 6.1214" height="0.241in">
    <desc>
        <referenceFile>sparkfun-rf_rf-link_tx_pcb.svg</referenceFile>
    </desc>
    <g gorn="0.0" id="copper1" >
        <circle connectorname="GND" stroke-width="0.4318" gorn="0.0.0" id="connector2pad" stroke="#F7BD13"  fill="none" r="0.7239" cx="1.4732" cy="1.9812"/>
        <path d="m0.5334,1.0414 1.8796,0 0,1.8796 -1.8796,0 0,-1.8796zM0.9652,1.9812a0.508,0.508 0 1 0 1.016,0 0.508,0.508 0 1 0 -1.016,0z&#xd;&#xa;" stroke-width="0" stroke="none"  fill="#F7BD13"/>
        <circle connectorname="DATA" stroke-width="0.4318" gorn="0.0.2" id="connector1pad" stroke="#F7BD13"  fill="none" r="0.7239" cx="4.0132" cy="2.2352"/>
        <circle connectorname="VCC" stroke-width="0.4318" gorn="0.0.3" id="connector3pad" stroke="#F7BD13"  fill="none" r="0.7239" cx="6.5532" cy="1.9812"/>
        <circle connectorname="ANT" stroke-width="0.4318" gorn="0.0.4" id="connector0pad" stroke="#F7BD13"  fill="none" r="0.7239" cx="9.0932" cy="2.2352"/>
        <g gorn="0.0.5" id="copper0" >
            <circle connectorname="GND" stroke-width="0.4318" gorn="0.0.5.0" id="connector2pad" stroke="#F7BD13"  fill="none" r="0.7239" cx="1.4732" cy="1.9812"/>
            <path d="m0.5334,1.0414 1.8796,0 0,1.8796 -1.8796,0 0,-1.8796zM0.9652,1.9812a0.508,0.508 0 1 0 1.016,0 0.508,0.508 0 1 0 -1.016,0z&#xd;&#xa;" stroke-width="0" stroke="none"  fill="#F7BD13"/>
            <circle connectorname="DATA" stroke-width="0.4318" gorn="0.0.5.2" id="connector1pad" stroke="#F7BD13"  fill="none" r="0.7239" cx="4.0132" cy="2.2352"/>
            <circle connectorname="VCC" stroke-width="0.4318" gorn="0.0.5.3" id="connector3pad" stroke="#F7BD13"  fill="none" r="0.7239" cx="6.5532" cy="1.9812"/>
            <circle connectorname="ANT" stroke-width="0.4318" gorn="0.0.5.4" id="connector0pad" stroke="#F7BD13"  fill="none" r="0.7239" cx="9.0932" cy="2.2352"/>
        </g>
    </g>
    <g gorn="0.1" id="silkscreen" >
        <line x1="0.2032" x2="0.2032" stroke-width="0.4064" class="other" stroke="#f0f0f0"  stroke-linecap="round" y1="0.2032" y2="5.9182"/>
        <line x1="0.2032" x2="12.9032" stroke-width="0.4064" class="other" stroke="#f0f0f0"  stroke-linecap="round" y1="5.9182" y2="5.9182"/>
        <line x1="12.9032" x2="12.9032" stroke-width="0.4064" class="other" stroke="#f0f0f0"  stroke-linecap="round" y1="5.9182" y2="0.2032"/>
        <line x1="12.9032" x2="0.2032" stroke-width="0.4064" class="other" stroke="#f0f0f0"  stroke-linecap="round" y1="0.2032" y2="0.2032"/>
    </g>
</svg>
